<?xml version="1.0" encoding="UTF-8" standalone="no"?>
<!-- Created with Inkscape (http://www.inkscape.org/) -->

<svg
   width="117.04662mm"
   height="132.29181mm"
   viewBox="0 0 117.04662 132.29181"
   version="1.1"
   id="svg1"
   xml:space="preserve"
   inkscape:version="1.4 (e7c3feb100, 2024-10-09)"
   sodipodi:docname="drawingOriginal.svg"
   xmlns:inkscape="http://www.inkscape.org/namespaces/inkscape"
   xmlns:sodipodi="http://sodipodi.sourceforge.net/DTD/sodipodi-0.dtd"
   xmlns="http://www.w3.org/2000/svg"
   xmlns:svg="http://www.w3.org/2000/svg"><sodipodi:namedview
     id="namedview1"
     pagecolor="#505050"
     bordercolor="#eeeeee"
     borderopacity="1"
     inkscape:showpageshadow="0"
     inkscape:pageopacity="0"
     inkscape:pagecheckerboard="0"
     inkscape:deskcolor="#505050"
     inkscape:document-units="mm"
     inkscape:zoom="0.59609041"
     inkscape:cx="72.136708"
     inkscape:cy="33.551957"
     inkscape:window-width="1239"
     inkscape:window-height="761"
     inkscape:window-x="0"
     inkscape:window-y="0"
     inkscape:window-maximized="0"
     inkscape:current-layer="layer1" /><defs
     id="defs1"><inkscape:path-effect
       effect="simplify"
       id="path-effect1"
       is_visible="true"
       lpeversion="1.3"
       threshold="10"
       steps="1"
       smooth_angles="40.754717"
       helper_size="2.0283019"
       simplify_individual_paths="false"
       simplify_just_coalesce="false" /></defs><g
     inkscape:label="Layer 1"
     inkscape:groupmode="layer"
     id="layer1"
     transform="translate(17.977501,-9.5049828)"><path
       style="fill:#000000;stroke-width:0.475887"
       d="m 71.441729,141.52098 c -0.150575,-0.16027 -0.273772,-0.37119 -0.273772,-0.4687 0,-0.1085 -0.07602,-0.0687 -0.196009,0.10253 -0.265511,0.37908 -0.373665,0.35461 -0.726254,-0.16427 -0.258035,-0.37974 -0.28687,-0.5212 -0.198893,-0.97582 0.167202,-0.86399 0.104546,-0.9589 -0.143184,-0.21691 -0.127167,0.38088 -0.236478,0.63584 -0.242912,0.5666 -0.0064,-0.0693 -0.08379,-0.0311 -0.171919,0.0849 -0.140796,0.18517 -0.180128,0.14328 -0.324459,-0.34556 -0.140134,-0.4746 -0.133582,-0.7108 0.04464,-1.60892 0.114882,-0.57897 0.378945,-1.52835 0.586802,-2.10973 0.207853,-0.58138 0.460843,-1.30975 0.562203,-1.6186 0.241954,-0.73727 0.762399,-2.06547 1.087405,-2.77512 l 0.259496,-0.5666 -0.589976,-1.13321 c -3.309975,-6.35767 -4.383009,-8.88681 -5.113128,-12.05164 -0.31459,-1.36366 -0.243697,-1.83431 0.314613,-2.0887 0.253076,-0.11529 0.304505,-0.0957 0.371235,0.14107 0.07638,0.27108 0.07947,0.27139 0.222077,0.0231 0.188379,-0.32804 0.355572,-0.43257 0.563929,-0.35262 0.09284,0.0357 0.168812,0.004 0.168812,-0.0707 0,-0.21791 0.333801,-0.0276 0.479161,0.27323 l 0.133352,0.27595 0.0085,-0.29073 c 0.0052,-0.17518 0.0627,-0.25724 0.14485,-0.20647 0.173437,0.10721 0.451349,0.75886 1.098027,2.57474 0.976572,2.74224 1.421772,3.84766 2.573242,6.38927 0.738224,1.62947 1.198429,2.50535 1.275742,2.42804 0.07731,-0.0774 -0.158099,-0.70159 -0.652588,-1.73054 -0.425442,-0.88529 -0.975372,-2.14788 -1.222066,-2.80576 -0.246696,-0.6579 -0.501405,-1.30949 -0.566025,-1.44799 -0.419185,-0.8985 -1.63537,-4.40217 -1.63537,-4.7113 0,-0.40489 0.333216,0.18258 0.743983,1.31168 0.429934,1.18179 1.862571,4.66838 2.276416,5.54011 0.131507,0.27702 0.499595,1.06509 0.817974,1.75131 0.318377,0.68621 0.623334,1.19615 0.677681,1.1332 0.05436,-0.063 0.258102,-0.48275 0.452777,-0.93287 0.194681,-0.45014 0.537095,-1.21505 0.760919,-1.69981 0.223829,-0.48476 0.647324,-1.41966 0.941099,-2.07754 0.293774,-0.65789 0.761852,-1.67777 1.040178,-2.26641 0.278323,-0.58864 0.75871,-1.63685 1.067527,-2.32937 0.674341,-1.51219 0.826316,-1.69981 1.376849,-1.69981 0.397595,0 0.421175,0.0247 0.421175,0.44176 0,0.41206 0.01718,0.4311 0.255665,0.28331 0.211398,-0.13103 0.276466,-0.12576 0.375807,0.0304 0.07985,0.12552 0.12079,0.13608 0.122069,0.0315 0.0033,-0.28934 0.314334,-0.16187 0.742331,0.30448 0.408254,0.44483 0.421526,0.4912 0.360009,1.25754 -0.09463,1.17892 -0.518388,2.38298 -2.962065,8.41648 -0.617059,1.52354 -1.686994,4.10157 -2.37763,5.72899 -1.513832,3.56718 -2.420895,5.84665 -2.930775,7.3651 -0.209147,0.62286 -0.427898,1.14834 -0.486109,1.16775 -0.05821,0.0194 -0.08208,0.19716 -0.05303,0.39503 0.05817,0.39638 -0.186638,0.64996 -0.361288,0.37422 -0.08554,-0.13505 -0.11034,-0.12168 -0.111838,0.0603 -0.0014,0.16181 -0.06367,0.21012 -0.202448,0.15687 -0.133766,-0.0513 -0.222485,0.007 -0.266506,0.17539 -0.08508,0.32535 -0.182892,0.31797 -0.518316,-0.0391 z m 3.687734,-8.15536 c 0.170754,-0.47336 0.562913,-1.41534 0.871468,-2.0933 0.693181,-1.52307 1.780168,-4.14569 1.893824,-4.56931 0.151707,-0.56546 -0.12522,-0.007 -0.874347,1.76277 -0.3957,0.93488 -0.973388,2.26641 -1.283751,2.95891 -0.535277,1.19438 -1.555111,3.89116 -1.53957,4.07112 0.0118,0.13653 0.597062,-1.20061 0.932376,-2.13019 z m 3.462817,-8.35613 c 0.0081,-0.2162 -0.215485,0.10593 -0.301416,0.4344 l -0.08237,0.31477 0.18966,-0.31477 c 0.104312,-0.17312 0.191663,-0.3686 0.194118,-0.4344 z m 0.25243,-0.63585 c 0,-0.0693 -0.05493,-0.041 -0.122055,0.063 -0.06713,0.10394 -0.122056,0.24553 -0.122056,0.31478 0,0.0693 0.05493,0.041 0.122056,-0.063 0.06713,-0.10393 0.122055,-0.24553 0.122055,-0.31478 z m -86.0567405,16.63227 c -1.8242016,-0.45063 -3.3089765,-1.58428 -4.5032425,-3.43828 -0.46565,-0.72288 -1.192176,-2.50886 -1.482729,-3.64491 -0.131763,-0.5152 -0.268885,-0.98415 -0.304705,-1.04211 -0.205454,-0.33242 -0.468924,-4.1197 -0.399107,-5.73691 0.0755,-1.74865 0.513339,-3.96019 1.027829,-5.19153 0.101631,-0.24326 0.184796,-0.51331 0.184796,-0.60011 0,-0.17254 0.53471,-1.36515 0.786774,-1.75481 0.08666,-0.13396 0.311377,-0.49602 0.499376,-0.80458 0.467968,-0.76809 1.5644955,-1.8946 1.934583,-1.98748 0.1673263,-0.042 0.3883092,-0.0441 0.4910773,-0.005 0.1717952,0.0659 1.4272022,-0.48687 1.5795763,-0.69553 0.1204279,-0.16491 1.1809314,-0.35011 2.0228269,-0.35322 1.0209764,-0.004 2.4899523,0.36232 3.3132169,0.82574 1.0057718,0.56616 1.96030976,1.6248 2.54867675,2.82662 0.60777365,1.24148 0.92599425,2.2406 0.92599425,2.90738 0,0.26036 0.056663,0.50838 0.1259148,0.55118 0.069251,0.0428 0.1262241,0.25863 0.1266143,0.4796 3.855e-4,0.22099 0.061503,0.62077 0.135818,0.88841 0.4409421,1.58803 0.3624637,5.72984 -0.1554007,8.20128 -0.4089864,1.95184 -1.3869331,4.40928 -2.2535938,5.66295 -0.6835776,0.98882 -1.7557974,2.08061 -2.0433233,2.08061 -0.1024064,0 -0.2567265,0.085 -0.3429333,0.18887 -0.086212,0.10394 -0.2584063,0.18888 -0.3826603,0.18888 -0.1242539,0 -0.2448007,0.0566 -0.2678861,0.12589 -0.056292,0.16886 -1.6631423,0.50142 -2.3713329,0.49077 -0.3116342,-0.005 -0.8499046,-0.0785 -1.1961596,-0.16404 z m 2.3930332,-3.78304 c 1.0638634,-0.62346 1.971041,-2.32345 2.6237954,-4.91679 0.4268703,-1.69592 0.6238919,-5.73848 0.3420196,-7.01777 -0.065063,-0.29532 -0.2401228,-1.13186 -0.3890182,-1.859 -0.1488952,-0.72714 -0.3222988,-1.3759 -0.3853442,-1.44169 -0.063046,-0.0658 -0.1146273,-0.25514 -0.1146273,-0.42078 0,-0.61703 -1.3502803,-2.07984 -2.1082391,-2.28393 -0.4565606,-0.12294 -0.5958622,-0.10897 -1.0051293,0.1003 -1.126942,0.57651 -1.8429513,1.70846 -2.6233052,4.14726 -0.55051,1.72048 -0.719564,1.97957 -0.6322764,0.96906 0.1357319,-1.57141 -0.4087339,0.33202 -0.6779142,2.36995 -0.2554378,1.93385 -0.030982,4.86942 0.5110829,6.68475 0.9548796,3.19771 2.7467873,4.67201 4.4589556,3.66861 z m -6.5968247,-1.1537 c -0.960214,-1.93532 -1.314441,-3.77647 -1.322492,-6.87389 -0.0033,-1.22617 -0.04923,-2.16107 -0.102322,-2.07754 -0.05309,0.0836 -0.09716,1.05843 -0.09794,2.16646 -0.0014,2.05724 0.208476,3.87874 0.576537,5.00247 0.107285,0.32755 0.158846,0.72418 0.114577,0.88137 -0.05651,0.20068 -0.04492,0.23446 0.03893,0.11342 0.09043,-0.1306 0.154864,-0.0651 0.26543,0.26996 0.08031,0.24331 0.285176,0.60423 0.455272,0.802 0.170096,0.19779 0.309336,0.41155 0.309421,0.47502 8.6e-5,0.0634 0.02969,0.0859 0.06578,0.0497 0.03612,-0.0362 -0.100344,-0.40015 -0.303197,-0.80902 z m 12.39662464,-3.16501 c 0.11842436,-0.3982 0.29473076,-1.06395 0.39179256,-1.47947 0.2457859,-1.05214 0.358038,-5.17746 0.1713144,-6.29557 -0.080958,-0.48476 -0.1686019,-1.13636 -0.1947708,-1.44799 -0.074081,-0.88223 -0.1886938,-1.38503 -0.3157126,-1.38503 -0.0639402,0 -0.0833664,-0.0857 -0.0431633,-0.19047 0.0402126,-0.10476 0.009095,-0.26756 -0.0690798,-0.36178 -0.078193,-0.0942 -0.10383324,-0.2712 -0.0569783,-0.3933 0.0608947,-0.1587 0.0345966,-0.20365 -0.0922644,-0.15762 -0.0975993,0.0355 -0.15572914,0.14231 -0.12917465,0.23752 0.13486148,0.48365 0.27363947,1.24702 0.32905168,1.80999 0.0340735,0.34626 0.15174597,1.09697 0.26147587,1.66825 0.309093,1.60927 0.1108198,5.47299 -0.39455754,7.6885 -0.19141573,0.83916 -0.2150959,1.03095 -0.12727101,1.03095 0.0296947,0 0.15091303,-0.32579 0.26933789,-0.72398 z M -12.574053,125.88458 c 0.0039,-0.0693 -0.048,-0.041 -0.115139,0.063 -0.06713,0.10382 -0.118938,0.27386 -0.115139,0.37774 0.0074,0.19942 0.217157,-0.20219 0.230272,-0.4407 z m 19.9677687,15.04644 c -0.049059,-0.15458 -0.1905069,-0.25183 -0.3662899,-0.25183 -0.3049195,0 -0.483553,-0.39882 -0.6487523,-1.4484 -0.08119,-0.51587 -0.1389065,-0.65036 -0.2369961,-0.55227 -0.030742,0.0308 -0.00876,0.28098 0.048859,0.55611 0.057601,0.27513 0.136903,0.71923 0.1762207,0.98688 0.066367,0.45179 0.056103,0.4729 -0.1432894,0.29478 -0.1181294,-0.10558 -0.3559013,-0.2112 -0.5283816,-0.23482 -0.8575712,-0.11748 -1.1434172,-2.57224 -1.0753036,-9.23451 0.031694,-3.09947 0.1107484,-4.81047 0.311187,-6.73476 0.4829058,-4.63613 0.8728662,-6.90297 1.3242064,-7.69755 0.1721854,-0.30315 0.3288186,-0.54658 0.3480682,-0.54098 0.019273,0.006 0.1575327,0.0757 0.3072942,0.15593 0.2627798,0.14064 0.26613,0.16887 0.095924,0.80822 -0.096995,0.36438 -0.1722851,0.83248 -0.1673026,1.04024 0.00619,0.25748 0.058129,0.14948 0.1632005,-0.33925 0.1004646,-0.46732 0.2721738,-0.83503 0.4930945,-1.05594 0.1864238,-0.18642 0.3389502,-0.39667 0.3389502,-0.46721 0,-0.0706 0.1192714,-0.0204 0.265045,0.11155 0.1457735,0.13192 0.289239,0.2219 0.3188106,0.19994 0.094853,-0.0705 1.0463791,0.4133 1.0497484,0.53366 0.00191,0.0638 0.087339,0.20892 0.1901167,0.32248 0.1027774,0.11353 0.3567204,0.51465 0.5643204,0.89129 0.410557,0.74488 0.487094,0.69951 0.198735,-0.11778 -0.296629,-0.84073 0.150656,-0.56871 0.595077,0.36191 0.29278,0.61306 1.602791,3.76286 1.602791,3.85375 0,0.041 0.08016,0.25295 0.178138,0.47117 0.09797,0.21822 0.471261,1.16167 0.829518,2.09656 0.859494,2.2429 0.785817,2.06146 1.306094,3.21635 0.25097,0.55708 0.45668,1.09536 0.457138,1.19616 9.51e-4,0.20564 0.499599,1.01004 0.503896,0.81283 0.06484,-2.97554 0.317426,-7.61033 0.507772,-9.31747 0.335209,-3.00636 0.521219,-4.17025 0.748625,-4.68434 0.215325,-0.48679 0.284956,-0.54833 0.533845,-0.47179 0.157419,0.0483 0.303883,0.10335 0.325469,0.1221 0.06305,0.0548 -0.223581,2.55043 -0.419099,3.64901 -0.0986,0.55401 -0.207025,1.43224 -0.240951,1.95164 -0.198596,3.04065 -0.214658,3.52546 -0.116777,3.525 0.0594,-2.9e-4 0.123668,-0.46773 0.142804,-1.03877 0.04241,-1.26574 0.288125,-3.29986 0.774377,-6.41075 0.152606,-0.97632 0.358023,-1.48969 0.59607,-1.48969 0.09276,0 0.16866,-0.0567 0.16866,-0.12592 0,-0.26775 0.265739,-0.10452 0.615221,0.37794 0.26829,0.37037 0.384198,0.45375 0.43753,0.31478 0.109673,-0.28579 0.295468,-0.22694 0.382864,0.12127 0.04794,0.191 0.142986,0.28535 0.247171,0.24538 0.12228,-0.0469 0.188257,0.10288 0.237625,0.53956 0.06307,0.55783 -0.06015,3.2784 -0.215553,4.75962 -0.08927,0.85078 -0.421711,5.22856 -0.5737,7.55469 -0.06788,1.03877 -0.156282,3.67348 -0.196469,5.8549 -0.04016,2.18141 -0.09762,4.04342 -0.127634,4.13779 -0.04078,0.12821 -0.09709,0.13627 -0.222833,0.0319 -0.127785,-0.10605 -0.225176,-0.0768 -0.404827,0.12175 -0.172224,0.19031 -0.331531,0.2424 -0.585717,0.19157 -0.192035,-0.0384 -0.349148,-0.0145 -0.349148,0.0529 0,0.19288 -0.455661,0.14344 -0.631582,-0.0685 -0.111077,-0.13384 -0.281507,-0.16827 -0.567433,-0.11458 -0.333364,0.0625 -0.521562,-0.002 -1.021334,-0.3543 -0.54696,-0.38475 -0.710589,-0.62564 -1.525725,-2.24621 -1.313228,-2.61082 -3.48506,-7.59784 -4.9726621,-11.41835 -0.1420616,-0.36484 -0.2776988,-0.64396 -0.3014074,-0.62025 -0.1227693,0.12277 -0.4209693,3.62687 -0.4220209,4.95911 -9.518e-4,1.42555 -0.1324869,2.0105 -0.3337297,1.48606 -0.07005,-0.18254 0.082305,-3.65053 0.2820674,-6.42066 0.089085,-1.23531 -0.021938,-1.19702 -0.2044884,0.0705 -0.4460103,3.09709 -0.5768458,9.05432 -0.2611523,11.8911 0.3234649,2.90664 0.3217897,2.82437 0.061823,3.03573 -0.1310353,0.10651 -0.1674168,0.15782 -0.080853,0.114 0.2277261,-0.1154 0.1858861,0.0798 -0.08733,0.40732 -0.292656,0.3508 -0.5939635,0.36436 -0.6996197,0.0315 z m -1.487883,-4.3046 c -0.040212,-0.10043 -0.070031,-0.0706 -0.076071,0.0761 -0.00548,0.13273 0.024318,0.2071 0.066129,0.16526 0.04183,-0.0418 0.046304,-0.15044 0.00995,-0.24133 z m -0.124668,-4.0976 c -0.031931,-0.12252 -0.060142,-0.0528 -0.062708,0.15499 -0.00238,0.20776 0.023557,0.30798 0.058043,0.22274 0.034502,-0.0852 0.036596,-0.25523 0.00476,-0.37773 z m 8.9585913,-3.40201 c -0.289025,-0.71754 -0.894252,-2.29188 -1.509835,-3.92744 -0.72725,-1.93223 -1.269784,-3.12999 -1.332511,-2.94181 -0.04378,0.1313 0.854521,2.61397 1.152887,3.18633 0.09025,0.17313 0.201277,0.4709 0.246724,0.66171 0.04545,0.19082 0.336956,0.89123 0.647796,1.55648 0.310839,0.66524 0.599126,1.34485 0.640638,1.51026 0.0415,0.1654 0.124597,0.30072 0.184625,0.30072 0.06003,0 0.0464,-0.15582 -0.03031,-0.34625 z m -3.128002,-7.90097 c -0.07312,-0.19233 -0.161287,-0.32136 -0.195912,-0.28674 -0.03464,0.0346 -0.0033,0.22032 0.07,0.41266 0.07313,0.19233 0.161287,0.32138 0.195913,0.28674 0.03464,-0.0346 0.0033,-0.22031 -0.07,-0.41266 z m -0.366156,-0.95512 c -0.08049,-0.20133 -0.124221,-0.23305 -0.129508,-0.094 -0.01062,0.27911 0.152389,0.69389 0.207591,0.52827 0.02389,-0.0716 -0.01124,-0.26713 -0.07808,-0.43433 z m -0.139416,-0.46137 c -9.52e-4,-0.052 -0.05685,-0.17942 -0.123983,-0.2833 -0.0987,-0.15274 -0.122426,-0.13467 -0.123987,0.0945 -9.52e-4,0.15582 0.05474,0.2833 0.123987,0.2833 0.06925,0 0.125044,-0.0425 0.123983,-0.0945 z m -4.2879178,-1.07769 c -0.00852,-0.26596 -0.012707,-0.26683 -0.1170633,-0.024 -0.1489239,0.34657 -0.1489239,0.46978 0,0.37773 0.069251,-0.0428 0.1219316,-0.20196 0.1170633,-0.35369 z m 20.7015758,21.5016 c -0.903909,-0.19973 -1.817805,-0.60434 -2.120465,-0.93876 -0.117053,-0.12935 -0.292622,-0.20455 -0.390155,-0.16712 -0.36509,0.14009 -1.097827,-1.10545 -1.309245,-2.22553 -0.39962,-2.11718 -0.528091,-7.90028 -0.255932,-11.52092 0.12663,-1.68462 0.766245,-5.81303 0.945558,-6.10317 0.03808,-0.0616 0.01171,-0.14764 -0.05871,-0.19114 -0.307085,-0.18978 -0.09958,-0.79238 0.533069,-1.54806 0.190439,-0.22748 0.348039,-0.51078 0.350214,-0.62956 0.0023,-0.11879 0.129659,-0.30692 0.283299,-0.41809 0.528777,-0.3826 0.805205,-0.39377 1.501242,-0.0606 l 0.664313,0.31792 1.260348,-0.30712 c 4.404163,-1.07321 6.361964,-0.92784 7.348368,0.54565 0.371976,0.55566 0.411531,0.69231 0.33371,1.15292 -0.04856,0.28742 -0.153464,0.54111 -0.233127,0.56377 -0.52497,0.14933 -2.244209,0.46889 -3.406872,0.63325 -2.43985,0.34492 -4.57363,0.96413 -4.727189,1.37179 -0.05501,0.14608 -0.19431,1.22882 -0.309531,2.40608 -0.115221,1.17728 -0.225937,2.29632 -0.246038,2.48677 -0.02603,0.24678 0.02051,0.34625 0.161991,0.34627 0.109193,0 1.246756,-0.30704 2.527904,-0.68232 1.281154,-0.37527 2.521771,-0.72155 2.756934,-0.76952 0.391313,-0.0798 0.421664,-0.0646 0.35791,0.1792 -0.05408,0.20674 -1.24e-4,0.28383 0.240975,0.34434 0.195342,0.049 0.28595,0.1423 0.244125,0.2513 -0.0366,0.0954 -0.005,0.17333 0.07012,0.17333 0.07733,0 0.11089,0.13471 0.0773,0.31039 -0.03264,0.17071 3.19e-4,0.33027 0.07324,0.35458 0.07388,0.0246 -0.03179,0.3016 -0.238647,0.62565 -0.326139,0.51086 -0.513381,0.64457 -1.542072,1.10116 -0.643974,0.28583 -1.748849,0.74355 -2.455279,1.01715 -0.706425,0.27361 -1.539384,0.59802 -1.851018,0.72093 l -0.566599,0.22347 0.03974,1.28428 c 0.03126,1.00975 -0.0023,1.34446 -0.15739,1.56575 -0.187956,0.26834 -0.197726,0.24347 -0.209599,-0.5335 -0.0069,-0.44823 -0.06016,-1.1266 -0.118472,-1.50748 -0.07112,-0.46448 -0.09037,0.0631 -0.0585,1.60226 0.0266,1.28465 0.105716,2.39315 0.179733,2.51824 0.0966,0.16327 0.111545,-0.0147 0.0555,-0.66116 -0.06301,-0.72658 -0.04022,-0.91491 0.127609,-1.0542 0.185963,-0.15432 0.204323,-0.0659 0.204323,0.98466 0,0.89632 0.265711,2.63893 0.438234,2.87403 0.063,0.0859 2.002544,-0.66331 2.951748,-1.14014 1.786501,-0.89744 3.079656,-1.61097 3.346291,-1.84641 0.138502,-0.12229 0.421802,-0.25859 0.629555,-0.30287 0.331688,-0.0707 0.247266,0.045 -0.69251,0.94883 -0.884725,0.8509 -0.982944,0.98066 -0.566605,0.74851 0.646349,-0.36038 0.999481,-0.65314 1.097851,-0.91012 0.04306,-0.11248 0.238628,-0.23471 0.43457,-0.27153 0.195936,-0.0369 0.483739,-0.10722 0.639553,-0.15635 0.217038,-0.0685 0.2833,-0.0398 0.2833,0.12261 0,0.15475 0.06805,0.19045 0.251825,0.13213 0.196393,-0.0624 0.251824,-0.0227 0.251824,0.18038 0,0.14317 0.05666,0.26031 0.125911,0.26031 0.181484,0 0.155306,0.34573 -0.03146,0.41575 -0.109731,0.0411 -0.08377,0.11552 0.08571,0.24578 0.233361,0.17931 0.215696,0.21597 -0.44069,0.91466 -0.832277,0.88593 -2.135598,1.86359 -3.359416,2.52 -0.502074,0.26928 -0.91286,0.53435 -0.91286,0.58903 0,0.0547 -0.141652,0.0994 -0.314779,0.0994 -0.173127,0 -0.31478,0.0429 -0.31478,0.0955 0,0.0525 -0.354126,0.21982 -0.786945,0.3717 -0.708257,0.24853 -1.094415,0.33534 -2.109019,0.47414 -0.173133,0.0237 -0.663624,-0.0341 -1.08999,-0.12823 z m 5.234328,-2.09013 c 0.870178,-0.47511 2.996186,-1.8416 3.590035,-2.30745 0.133443,-0.10464 0.210794,-0.22218 0.17189,-0.26109 -0.03893,-0.039 -0.488054,0.24109 -0.998105,0.62222 -0.510046,0.38112 -1.593116,1.06997 -2.406819,1.53076 -0.813705,0.4608 -1.47946,0.86014 -1.47946,0.88743 0,0.11388 0.216253,0.0229 1.122459,-0.47187 z m 22.863703,2.18984 c -1.011073,-0.16534 -2.030371,-0.49044 -2.528871,-0.80658 -0.323335,-0.20505 -0.663604,-0.34377 -0.75616,-0.30825 -0.438168,0.16813 -1.058818,-1.32377 -1.356476,-3.26063 -0.313548,-2.04029 -0.340273,-2.48986 -0.344299,-5.79194 -0.0048,-3.73243 0.195394,-6.04474 0.819581,-9.47834 0.104207,-0.57325 0.219493,-1.09085 0.25619,-1.15022 0.03669,-0.0593 0.0048,-0.28619 -0.07136,-0.50402 -0.164728,-0.47255 -9.51e-4,-0.96649 0.465993,-1.40514 0.16756,-0.15741 0.304653,-0.36604 0.304653,-0.46362 0,-0.0976 0.205735,-0.3772 0.457189,-0.62141 0.390651,-0.37936 0.519106,-0.43394 0.882579,-0.37496 0.233965,0.0379 0.601459,0.1944 0.816655,0.34764 l 0.39126,0.27861 1.338825,-0.33216 c 2.803057,-0.69539 5.355003,-0.92477 5.879059,-0.52839 0.134424,0.10171 0.357729,0.18982 0.496235,0.19589 0.146926,0.006 0.477819,0.29733 0.794383,0.69836 0.510265,0.6464 0.537509,0.72104 0.457641,1.25364 -0.04674,0.31147 -0.128646,0.59333 -0.182088,0.62636 -0.05344,0.033 -1.279268,0.25903 -2.724051,0.50223 -4.040066,0.68006 -5.369736,1.11164 -5.510047,1.78849 -0.09318,0.44948 -0.453496,4.10635 -0.453496,4.60256 0,0.42432 -0.05028,0.42574 1.573899,-0.0442 0.484757,-0.14027 1.16468,-0.33688 1.51094,-0.4369 0.346256,-0.10007 1.007128,-0.30265 1.468606,-0.45027 0.907453,-0.29026 1.238493,-0.25499 1.238493,0.13193 0,0.15608 0.09936,0.26183 0.269904,0.28725 0.189179,0.0282 0.280745,0.14365 0.306138,0.386 0.01994,0.19017 0.06923,0.44973 0.109556,0.57679 0.131006,0.41277 -0.616869,1.26504 -1.418324,1.61632 -0.393396,0.17244 -0.913573,0.41634 -1.155951,0.54202 -0.242384,0.12568 -1.173507,0.49262 -2.069174,0.81541 -0.895665,0.3228 -1.712987,0.6342 -1.816268,0.692 -0.152417,0.0853 -0.182854,0.38643 -0.161592,1.5987 0.06614,3.77136 0.234455,5.58573 0.51816,5.58573 0.155124,0 1.426297,-0.46073 2.017934,-0.73139 0.31163,-0.14256 0.8499,-0.38705 1.196159,-0.54329 0.346256,-0.15625 0.997849,-0.51693 1.447986,-0.80149 1.121031,-0.70871 2.400237,-1.3575 2.493216,-1.26452 0.04225,0.0423 -0.373947,0.50259 -0.924895,1.02296 l -1.001722,0.94612 0.671742,-0.40992 c 0.369456,-0.22546 0.750435,-0.52228 0.846622,-0.65959 0.09618,-0.13732 0.431329,-0.34702 0.744767,-0.466 0.54566,-0.20714 0.569883,-0.20665 0.569883,0.0117 0,0.16588 0.06851,0.20995 0.25182,0.16202 0.153145,-0.04 0.251825,-0.004 0.251825,0.0924 0,0.087 0.09365,0.22667 0.208105,0.31036 0.238662,0.17452 0.130784,0.43837 -0.184058,0.45017 -0.154264,0.006 -0.134876,0.0393 0.07039,0.12186 0.406511,0.1634 0.355782,0.35823 -0.283557,1.0891 -0.636522,0.72764 -1.795891,1.59464 -2.832757,2.11841 -0.38088,0.1924 -0.862497,0.47599 -1.07025,0.6302 -1.014942,0.75339 -3.378219,1.49987 -4.280994,1.35224 z m 4.910554,-2.38492 c 0.93602,-0.48466 3.462568,-2.26568 3.462568,-2.44085 0,-0.156 -0.122378,-0.0838 -1.013324,0.59768 -0.868155,0.66408 -2.638515,1.77163 -3.487805,2.182 -0.358304,0.17312 -0.653663,0.3545 -0.656357,0.40306 -0.0054,0.0962 0.521986,-0.13457 1.694918,-0.74189 z m -5.845029,-4.48977 c -0.07467,-1.00592 -0.135775,-2.21212 -0.135775,-2.68045 0,-0.57527 -0.0414,-0.81009 -0.127623,-0.72386 -0.131873,0.13186 0.03032,4.10251 0.201442,4.9321 0.171396,0.83083 0.19459,0.25885 0.06195,-1.52779 z m 0.07353,-9.68271 c -0.03493,-0.0866 -0.06351,-0.0158 -0.06351,0.15739 0,0.17312 0.02855,0.24395 0.06351,0.15738 0.03493,-0.0866 0.03493,-0.22822 0,-0.31477 z m 32.464767,16.38917 c -1.010917,-0.23789 -1.783709,-0.5417 -2.095385,-0.82376 -0.130517,-0.11811 -0.317036,-0.16333 -0.471523,-0.11436 -0.215933,0.0686 -0.31745,-0.0414 -0.654234,-0.70857 -1.394847,-2.76318 -1.502631,-11.32864 -0.22548,-17.91872 0.13388,-0.69081 0.207415,-1.41995 0.16341,-1.62031 -0.08619,-0.3924 0.07439,-0.80253 0.541473,-1.38285 0.157556,-0.19575 0.286465,-0.43243 0.286465,-0.52595 0,-0.0935 0.212473,-0.3454 0.472169,-0.55973 0.529962,-0.43739 0.86232,-0.43292 1.685928,0.0227 l 0.458293,0.25352 1.241511,-0.32598 c 2.767952,-0.72676 5.104934,-0.90525 6.02616,-0.46027 0.277004,0.13381 0.564869,0.2452 0.639692,0.24756 0.07483,0.002 0.327453,0.2708 0.561389,0.59655 0.348729,0.4856 0.420921,0.69396 0.400782,1.15669 -0.01352,0.31042 -0.07857,0.61841 -0.144603,0.68444 -0.128537,0.12853 -0.478799,0.19303 -3.220024,0.59297 -1.752195,0.25563 -3.306878,0.61613 -4.029169,0.9343 -0.207753,0.0915 -0.499985,0.20318 -0.649404,0.24815 -0.149418,0.045 -0.302288,0.16154 -0.339707,0.25905 -0.101503,0.26453 -0.515485,5.08676 -0.442917,5.15933 0.03441,0.0344 0.597295,-0.0864 1.25092,-0.26848 0.65362,-0.18204 1.400877,-0.35674 1.660568,-0.38822 0.259691,-0.0315 0.47217,-0.10792 0.47217,-0.16991 0,-0.062 0.102322,-0.11272 0.227373,-0.11272 0.125059,0 0.57953,-0.11893 1.009945,-0.26428 0.858457,-0.2899 1.155001,-0.2554 1.155001,0.13442 0,0.18301 0.08245,0.25578 0.289824,0.25578 0.246918,0 0.291747,0.0677 0.302788,0.45732 0.0071,0.25152 0.0753,0.49585 0.15147,0.54292 0.08975,0.0555 -0.0057,0.27536 -0.271308,0.62473 -0.467221,0.61463 -1.906801,1.40631 -3.809433,2.09492 -0.623259,0.22559 -1.474449,0.53876 -1.891529,0.69594 l -0.75833,0.28578 0.01799,2.08757 c 0.02584,2.99997 0.244606,5.0465 0.539493,5.0465 0.213507,0 1.497245,-0.48493 2.122521,-0.80179 0.359713,-0.18228 0.740893,-0.33141 0.847073,-0.33141 0.106185,0 0.193053,-0.0566 0.193053,-0.12591 0,-0.0693 0.109977,-0.12591 0.244391,-0.12591 0.134419,0 0.274502,-0.0487 0.311296,-0.10827 0.07456,-0.12063 2.261827,-1.40269 2.393082,-1.40269 0.04582,0 0.245462,-0.11989 0.44365,-0.26641 0.198192,-0.14653 0.436507,-0.24103 0.529595,-0.21 0.172732,0.0576 -0.667793,0.94234 -1.501641,1.58068 -0.22695,0.17373 -0.384311,0.34421 -0.349687,0.37883 0.03465,0.0346 0.25903,-0.0866 0.498678,-0.26938 0.239642,-0.18278 0.492294,-0.33233 0.561455,-0.33233 0.06915,0 0.246776,-0.16999 0.39471,-0.37773 0.147934,-0.20776 0.364267,-0.37955 0.48074,-0.38175 0.116473,-0.002 0.319273,-0.0853 0.450665,-0.18483 0.246134,-0.1863 0.513929,-0.13652 0.385287,0.0716 -0.03983,0.0645 0.03008,0.1182 0.155335,0.11939 0.283399,0.002 0.842352,0.57381 0.733688,0.74964 -0.04402,0.0713 -0.175893,0.13341 -0.292994,0.13809 -0.161616,0.007 -0.144655,0.0414 0.07038,0.14515 0.155813,0.0751 0.283304,0.20566 0.283304,0.29002 0,0.39173 -2.804185,2.83001 -3.254702,2.83001 -0.05217,0 -0.441837,0.22548 -0.865947,0.50105 -2.025211,1.31596 -3.75986,1.75941 -5.385683,1.37682 z m 5.000173,-1.88362 c 1.520256,-0.7586 4.272489,-2.6622 4.099352,-2.83534 -0.03198,-0.032 -0.279312,0.12058 -0.549649,0.339 -0.738813,0.59693 -2.768959,1.91061 -3.765233,2.43644 -0.484762,0.25585 -0.904988,0.48861 -0.933846,0.51724 -0.154963,0.15378 0.238172,-0.002 1.149376,-0.45734 z m -5.25839,-5.49749 c -0.05076,-1.22625 -0.140905,-2.37363 -0.200314,-2.54971 -0.117863,-0.34936 -0.03322,3.23841 0.09921,4.20449 0.155396,1.13374 0.191849,0.53714 0.101106,-1.65478 z m -78.3345771,3.42571 c 4.759e-4,-0.41551 0.024223,-0.57031 0.052233,-0.344 0.028029,0.22629 0.027459,0.56627 -0.00143,0.75546 -0.028743,0.18921 -0.051657,0.005 -0.050948,-0.41146 z m -0.1424423,-1.0073 c -0.084522,-0.33957 -0.072402,-2.93336 0.013325,-2.84761 0.054313,0.0543 0.080591,0.7456 0.058391,1.53615 -0.022177,0.79056 -0.054461,1.38071 -0.071702,1.31146 z M 90.995171,97.485385 c -0.176991,-0.280367 -0.371914,-0.64158 -0.433166,-0.802687 -0.07753,-0.203931 -0.211769,-0.292917 -0.441856,-0.292917 -0.181768,0 -0.47215,-0.133082 -0.645292,-0.29574 -0.26545,-0.249375 -0.332897,-0.266648 -0.43024,-0.110176 -0.09433,0.151637 -0.161277,0.157161 -0.366123,0.03022 -0.137878,-0.08544 -0.33501,-0.122989 -0.438071,-0.08344 -0.42088,0.161507 -1.96307,-1.154082 -1.96307,-1.674626 0,-0.09844 -0.05464,-0.145216 -0.121428,-0.103937 -0.06679,0.04126 -0.264022,-0.206345 -0.438296,-0.550263 C 85.54335,93.2579 85.349193,92.944642 85.286171,92.905691 85.064946,92.768964 84.155575,90.23426 83.724127,88.551782 83.165669,86.373992 82.912758,84.693951 82.672165,81.563688 82.459743,78.799921 82.377224,70.72239 82.532601,67.902273 c 0.05151,-0.934894 0.12601,-2.379728 0.165557,-3.210745 0.03955,-0.831016 0.151984,-2.247522 0.249864,-3.147789 0.09787,-0.900268 0.208504,-2.515089 0.245833,-3.588484 0.03731,-1.073395 0.123151,-2.319923 0.190717,-2.770054 0.156895,-1.045261 0.632039,-6.691005 0.810644,-9.632242 l 0.06881,-1.133204 -0.393859,1.07025 c -0.216623,0.588635 -0.562236,1.52353 -0.768033,2.07754 -0.205791,0.554012 -1.023655,2.508789 -1.817477,4.343952 -0.793821,1.835161 -1.564581,3.619959 -1.712796,3.966219 -0.294907,0.688955 -0.471475,0.95773 -0.471475,0.717694 0,-0.0831 -0.05666,-0.151095 -0.12591,-0.151095 -0.06926,0 -0.125915,0.07423 -0.125915,0.164948 0,0.09072 -0.198311,0.567489 -0.44069,1.05949 -0.242378,0.491995 -0.44069,1.012705 -0.44069,1.157122 0,0.144423 -0.07478,0.262585 -0.166179,0.262585 -0.141839,0 -0.481683,0.68708 -1.418946,2.868762 -0.0977,0.227417 -0.177639,0.513548 -0.177639,0.635852 0,0.122303 -0.06141,0.28379 -0.136484,0.358856 -0.07507,0.07507 -0.418466,0.837151 -0.763103,1.693513 -0.635052,1.577997 -1.446767,3.256134 -2.184357,4.51595 -1.177672,2.011467 -1.845512,3.188419 -2.343789,4.130503 -0.304186,0.575124 -0.771131,1.334405 -1.037656,1.687294 -0.266525,0.352893 -0.763911,1.107373 -1.105308,1.676633 -0.341396,0.569256 -0.732428,1.136104 -0.868959,1.259668 -0.136538,0.123559 -0.249541,0.315027 -0.251122,0.425485 -0.0014,0.110457 -0.400344,0.710774 -0.886137,1.334038 -0.485795,0.62326 -1.126729,1.444834 -1.424291,1.825715 -1.130921,1.44757 -5.941005,6.103401 -7.582351,7.339193 -1.040845,0.78367 -2.913006,1.982462 -3.891667,2.491941 -0.415511,0.216309 -1.123763,0.598993 -1.573895,0.850405 -0.450135,0.251415 -1.435677,0.725983 -2.190096,1.054597 -1.378776,0.600569 -1.619594,0.729115 -1.365927,0.729115 0.585054,0 4.93172,-2.01181 6.614032,-3.06124 0.756307,-0.471783 1.396793,-0.836094 1.42331,-0.809573 0.02651,0.02651 -0.560143,0.448495 -1.303691,0.937734 -5.567239,3.663113 -12.400698,5.936998 -18.979537,6.315585 -3.774859,0.217228 -5.816175,0.149586 -9.254502,-0.306661 -3.211063,-0.426089 -9.100791,-1.801383 -10.765447,-2.513803 -0.207758,-0.08892 -0.627585,-0.228036 -0.932957,-0.30916 -0.30537,-0.08112 -0.673658,-0.223037 -0.818423,-0.315365 -0.144765,-0.09233 -0.546508,-0.251801 -0.892763,-0.354378 C 12.214489,93.112203 8.0789018,91.276704 5.693911,90.000515 2.6865606,88.391309 0.60056938,87.203078 -0.30924946,86.580975 -2.0409337,85.396908 -3.2032864,84.574537 -4.0642412,83.924296 -4.549003,83.558178 -5.1128239,83.132235 -5.3171791,82.977758 c -2.2375801,-1.691439 -7.1950279,-6.399627 -8.2514429,-7.836556 -0.8353,-1.136174 -1.731941,-2.193256 -1.801431,-2.123772 -0.03393,0.03393 -0.191658,-0.125686 -0.350466,-0.354741 -0.418214,-0.603195 -1.048406,-1.297842 -1.17742,-1.297842 -0.06116,0 -0.124462,-0.09042 -0.140686,-0.200928 -0.01622,-0.110516 -0.234093,-0.468977 -0.484172,-0.796591 -0.464731,-0.608835 -0.551814,-0.8282 -0.32877,-0.8282 0.06924,0 0.125914,0.08164 0.125914,0.181436 0,0.193134 0.226899,0.389104 0.330532,0.285471 0.03407,-0.03407 -0.02636,-0.273312 -0.13429,-0.531632 -0.247166,-0.591556 -0.249441,-0.76573 -0.0074,-0.564835 0.134918,0.111967 0.18887,0.11549 0.18887,0.01228 0,-0.07944 -0.141652,-0.198302 -0.314781,-0.264126 -0.278121,-0.10574 -0.314779,-0.193353 -0.314779,-0.752353 0,-0.511516 0.04098,-0.632672 0.214049,-0.632672 0.166484,0 0.180475,-0.0336 0.06296,-0.151094 -0.0831,-0.0831 -0.151093,-0.344589 -0.151093,-0.581086 0,-0.429711 2.04e-4,-0.429854 0.31478,-0.223739 0.431919,0.283006 0.395885,0.07345 -0.06296,-0.366155 -0.207753,-0.19904 -0.377735,-0.405437 -0.377735,-0.458656 0,-0.05322 0.141652,-0.305495 0.314779,-0.560617 0.173129,-0.255118 0.314781,-0.618986 0.314781,-0.808598 0,-0.189612 0.08499,-0.415282 0.188865,-0.501494 0.103879,-0.08622 0.18887,-0.263332 0.18887,-0.393606 0,-0.499823 0.906135,-1.827523 3.746211,-5.489041 2.878185,-3.710654 5.8259215,-6.804393 9.1714035,-9.625671 3.60208476,-3.037672 6.8992167,-5.274351 11.3932268,-7.728828 5.1086507,-2.790176 8.6208977,-4.162513 14.6588077,-5.727619 3.033229,-0.786255 3.039967,-0.787585 6.043758,-1.192947 3.137462,-0.423404 5.597763,-0.511576 9.235505,-0.330984 4.046443,0.200883 5.25261,0.340186 9.391576,1.084649 5.046434,0.907685 10.610213,3.093564 15.306103,6.01341 1.178295,0.73265 2.777326,2.030043 2.140495,1.73672 -0.284423,-0.131006 -0.277333,-0.11082 0.07349,0.209366 0.213554,0.194894 0.919656,0.807634 1.569117,1.361647 1.617562,1.379831 2.764296,2.46024 2.764296,2.604416 0,0.06614 0.181817,0.384526 0.404033,0.707511 0.22222,0.322984 0.414278,0.73514 0.426789,0.915902 0.01251,0.180763 0.221301,0.606634 0.463975,0.946382 0.737505,1.032533 1.287468,2.177952 1.124144,2.341277 -0.105201,0.105202 -0.188927,0.10279 -0.324018,-0.0094 -0.107132,-0.08891 -0.319591,-0.116683 -0.515841,-0.06743 -0.282753,0.07097 -0.417095,-0.0033 -0.880257,-0.486697 -0.300623,-0.313743 -0.708324,-0.674578 -0.906006,-0.801853 l -0.359419,-0.231411 0.360594,0.435449 c 0.415587,0.501862 0.278289,0.630704 -0.352918,0.331176 -0.232908,-0.110527 -0.478823,-0.20095 -0.546475,-0.20095 -0.06765,0 -0.200738,-0.110141 -0.295748,-0.24476 -0.250817,-0.35537 -2.756897,-2.068818 -4.008968,-2.740993 -0.590884,-0.317217 -1.357633,-0.759523 -1.703893,-0.982902 -0.346255,-0.223378 -0.982068,-0.583347 -1.412916,-0.799932 -2.06175,-1.036432 -0.268519,0.237823 2.172912,1.544053 0.6033,0.322779 1.099983,0.832213 0.811391,0.832213 -0.07181,0 -1.257621,-0.538272 -2.63514,-1.196161 -1.377526,-0.657887 -2.537913,-1.19616 -2.578644,-1.19616 -0.04073,0 -0.739351,-0.278955 -1.552489,-0.6199 -2.212677,-0.927769 -5.825874,-2.012134 -8.838564,-2.652561 -1.543556,-0.328124 -1.863442,-0.323386 -1.201856,0.0178 0.703166,0.362632 1.104471,0.80798 1.006429,1.116883 -0.0435,0.137006 -0.146068,0.249967 -0.227964,0.251028 -0.100215,0.0013 -0.09405,0.03671 0.01885,0.108268 0.121608,0.07709 0.14426,0.26296 0.08235,0.675772 -0.102545,0.68386 -0.293647,0.804285 -1.446272,0.911417 -1.52425,0.141675 -2.193336,0.454289 -3.49728,1.63403 -1.190345,1.076964 -1.780125,2.474083 -1.798822,4.261185 -0.0256,2.447527 0.863481,4.31808 2.676723,5.631583 2.253969,1.632767 5.579084,1.385268 7.352332,-0.54726 0.819638,-0.893258 1.521261,-2.048967 1.620236,-2.668847 0.04407,-0.275962 0.10835,-0.685895 0.142871,-0.910961 0.06751,-0.440224 0.303168,-0.568341 0.303168,-0.16482 0,0.134416 0.05666,0.27941 0.125915,0.32221 0.07301,0.04511 0.12591,-0.0775 0.12591,-0.291932 0,-0.452461 0.261942,-0.717833 0.486703,-0.493073 0.120513,0.120514 0.174066,0.119806 0.250155,-0.0033 0.264912,-0.428635 1.708157,2.0593 2.325833,4.009387 0.634048,2.001755 0.794811,5.970458 0.337304,8.326852 -0.293304,1.510655 -0.313076,1.935445 -0.04856,1.043235 0.432814,-1.459896 0.540155,-2.061127 0.6863,-3.843964 0.169029,-2.062065 0.09487,-2.99552 -0.442379,-5.56793 -0.155478,-0.744453 -0.242527,-1.353549 -0.193444,-1.353549 0.118025,0 0.691035,2.081761 0.901096,3.273699 0.19497,1.106332 0.199497,6.043498 0.0063,6.925143 -0.316868,1.446334 -0.807621,3.076559 -1.307683,4.34395 -0.587106,1.488011 -1.816601,3.858553 -2.229733,4.299072 -0.139215,0.148443 -0.222315,0.300704 -0.184663,0.338355 0.03764,0.03764 -0.247798,0.553642 -0.634337,1.146644 -0.774301,1.187879 -2.305722,2.854329 -3.667324,3.990675 -0.484758,0.404566 -0.97641,0.817182 -1.09256,0.916923 -0.535428,0.459806 -2.151715,1.47887 -3.086385,1.945947 -4.487533,2.242559 -8.945042,2.808983 -13.971607,1.775395 -2.334419,-0.480013 -2.410693,-0.503863 -4.32467,-1.352273 -1.966569,-0.871725 -3.519696,-1.738624 -4.652567,-2.59689 -1.294534,-0.980745 -3.439259,-3.067893 -3.331572,-3.242138 0.05618,-0.0909 0.03578,-0.112716 -0.0537,-0.05742 -0.154663,0.09559 -0.672913,-0.355553 -0.805571,-0.701257 -0.04425,-0.11529 -0.33471,-0.540093 -0.645488,-0.944006 -1.035492,-1.345803 -2.72576,-5.113368 -3.097389,-6.904014 -0.05749,-0.277009 -0.280745,-1.155243 -0.496126,-1.951634 -0.233327,-0.862755 -0.362088,-1.586687 -0.318577,-1.791166 0.04016,-0.188751 0.02655,-0.415392 -0.03027,-0.503649 -0.0568,-0.08825 -0.107037,-0.302112 -0.111629,-0.47524 -0.02665,-1.005605 -0.06637,-1.267305 -0.181484,-1.19616 -0.182203,0.112611 -0.154592,1.384592 0.06125,2.821636 0.556516,3.705243 1.838644,7.037419 3.871251,10.061163 0.572958,0.852342 2.424604,2.930681 3.085609,3.463374 0.156619,0.126214 0.283896,0.296196 0.282839,0.377734 -0.0014,0.09512 -0.03507,0.10251 -0.09443,0.02061 -0.05088,-0.0702 -0.567191,-0.551819 -1.147363,-1.07025 -0.58017,-0.518436 -1.291639,-1.254238 -1.581045,-1.635123 -0.603429,-0.794163 -1.90534,-2.902792 -2.384105,-3.8614 -1.03148,-2.065276 -1.911318,-4.873087 -2.225374,-7.101815 -0.195632,-1.388304 -0.21088,-4.29212 -0.02675,-5.090515 0.07986,-0.34626 0.209,-1.252824 0.286969,-2.014589 0.356187,-3.48002 1.565162,-6.73409 3.555244,-9.569284 1.185447,-1.688857 2.676223,-3.392738 3.683313,-4.209833 0.45442,-0.368691 0.803715,-0.692848 0.776209,-0.72035 -0.02751,-0.02751 -0.525388,0.125818 -1.106417,0.34071 -0.581034,0.214894 -1.509703,0.550319 -2.06371,0.74539 -0.554014,0.195071 -1.479498,0.558911 -2.056634,0.808533 -1.021395,0.441772 -1.508203,0.694325 -3.861215,2.003192 -1.169219,0.650379 -3.9907121,2.49427 -5.5401129,3.620551 -0.484757,0.352378 -1.0230322,0.732904 -1.1961597,0.84561 -0.4837433,0.31492 -2.2485446,1.813332 -3.0218792,2.565737 -0.3808804,0.370577 -1.0667518,0.995974 -1.52415484,1.389769 -0.77532383,0.667503 -3.42413646,3.447356 -5.03320866,5.282198 -0.3863581,0.44057 -1.1121706,1.36764 -1.6129126,2.060155 -0.5007421,0.692515 -1.43446,1.854049 -2.0749318,2.58119 -0.6404716,0.727139 -1.2059964,1.39123 -1.2567209,1.475761 -0.050728,0.08453 4.143e-4,0.332849 0.1136522,0.551819 0.3956095,0.765021 4.4220276,4.965371 7.245624,7.558619 2.3501893,2.158455 4.7765298,4.173225 4.8905331,4.060973 0.030457,-0.02998 -0.054541,-0.13164 -0.1888698,-0.225913 -0.7928982,-0.556468 -0.713449,-0.613085 0.1010069,-0.07198 0.5361338,0.356201 1.0025073,0.692482 1.0363809,0.747295 0.033883,0.05481 0.4619858,0.347616 0.9513589,0.650669 0.489373,0.30306 1.1278747,0.703547 1.4188983,0.88997 0.4790892,0.306905 1.1113616,0.64899 3.425093,1.853121 2.4130441,1.255817 7.1965691,3.249505 9.3816071,3.910084 0.726483,0.219631 1.434203,0.446481 1.572704,0.504111 0.269129,0.11199 2.949421,0.758049 4.406909,1.06225 3.515184,0.733679 6.186421,1.082437 8.285594,1.081771 1.823097,-4.77e-4 5.218127,-0.340688 6.980397,-0.699283 1.765642,-0.359279 5.731757,-1.56767 6.006777,-1.830135 0.06579,-0.06278 0.198891,-0.114155 0.295781,-0.114155 0.291224,0 4.177794,-1.924557 5.124713,-2.537661 1.28211,-0.830132 1.832496,-1.14897 1.887837,-1.093629 0.06916,0.06916 -1.290399,1.141832 -2.119223,1.672021 -0.799932,0.511712 -1.133352,0.898403 -0.388985,0.451141 1.513082,-0.909157 3.84908,-2.521432 4.867996,-3.359829 1.771691,-1.457803 4.062832,-3.830511 5.329999,-5.519751 2.688045,-3.583397 5.685078,-8.380076 6.726394,-10.765446 0.226736,-0.519383 0.730177,-1.53927 1.118767,-2.266411 1.755412,-3.284815 4.028787,-8.627289 6.349106,-14.920526 0.382998,-1.038771 0.780844,-2.143646 0.884101,-2.455276 0.103259,-0.311632 0.609378,-1.671478 1.124706,-3.02188 0.515328,-1.350402 1.282491,-3.47516 1.704807,-4.721686 1.430286,-4.221681 3.425801,-10.366347 3.425801,-10.548849 0,-0.09984 0.192149,-0.770185 0.426995,-1.489655 0.234844,-0.719471 0.777707,-2.413003 1.206357,-3.763405 2.483676,-7.824477 3.228871,-9.981652 3.928909,-11.37333 0.313452,-0.623153 0.397642,-0.710118 0.558329,-0.576759 0.104078,0.08637 0.341835,0.172129 0.528363,0.190572 0.280435,0.02773 0.401953,-0.06492 0.701989,-0.535287 0.199564,-0.3128494 0.443756,-0.5998645 0.54264,-0.6378112 0.269441,-0.1033944 0.905836,0.5773582 0.997748,1.0672942 l 0.08066,0.429909 0.270574,-0.483441 c 0.158347,-0.282922 0.381628,-0.499471 0.538319,-0.522085 0.329146,-0.047503 0.669791,0.398852 0.669791,0.877652 0,0.444444 0.200519,0.562367 0.381437,0.224319 0.130717,-0.244247 0.160102,-0.249636 0.362488,-0.06648 0.252919,0.22889 0.588509,0.260363 0.708366,0.06644 0.191559,-0.309947 0.495835,-0.0283 0.688375,0.637182 0.175688,0.607225 0.240303,0.692556 0.528181,0.697537 0.66944,0.01159 1.04321,0.663183 1.179295,2.055892 0.1089,1.114514 0.256508,0.967035 0.397365,-0.397014 l 0.09844,-0.953323 0.408373,0.365849 c 0.224599,0.201216 0.42291,0.431197 0.44069,0.511066 0.0178,0.07987 0.211074,0.3451 0.429558,0.589401 0.293613,0.328313 0.418428,0.61379 0.478471,1.09436 0.07849,0.628227 -0.125644,6.728171 -0.246561,7.367627 -0.03274,0.173128 -0.117422,1.023031 -0.188181,1.888674 -0.130763,1.59958 -0.317739,3.564731 -0.44096,4.634484 -0.03741,0.324967 -0.09748,0.84582 -0.133449,1.157451 -0.03598,0.311632 -0.14377,1.104874 -0.239561,1.762763 -0.326744,2.243963 -0.687189,5.59862 -1.082304,10.072931 -0.217094,2.458424 -0.469038,5.149785 -0.559867,5.980802 -0.09083,0.831017 -0.254232,2.389173 -0.363115,3.462569 -0.108876,1.073399 -0.285484,2.801533 -0.392439,3.840308 -0.106958,1.03877 -0.284147,2.795237 -0.393753,3.903258 -0.109603,1.108021 -0.251898,2.411207 -0.316194,2.895969 -0.06431,0.484758 -0.1422,1.472388 -0.173104,2.194732 -0.03089,0.722338 -0.114881,1.855543 -0.186623,2.518229 -0.495156,4.574074 -0.562755,14.902452 -0.115841,17.699308 0.06639,0.415506 0.178044,1.29374 0.248113,1.95163 0.305115,2.864703 0.91828,5.811849 1.499808,7.208752 0.468691,1.125838 0.440338,1.571829 -0.137579,2.164089 -0.198658,0.203589 -0.361197,0.414649 -0.361197,0.469019 0,0.155435 -0.771597,-0.03879 -1.231004,-0.309816 -0.471261,-0.278051 -0.454653,-0.284118 -0.618814,0.226108 -0.164314,0.510698 -0.570988,0.558786 -0.981316,0.11604 l -0.316655,-0.341676 v 0.459078 c 0,0.300616 -0.05845,0.459078 -0.169354,0.459078 -0.09315,0 -0.271907,0.113312 -0.39725,0.25182 -0.316027,0.349209 -0.39244,0.323255 -0.759335,-0.257946 z M 47.940594,94.116214 c -0.03879,-0.03879 -0.140367,-8.1e-5 -0.225775,0.08597 -0.12343,0.124354 -0.108971,0.138816 0.07048,0.07049 0.124177,-0.0473 0.194057,-0.117686 0.155291,-0.156452 z m 45.896382,-3.864622 c -0.0569,-0.41551 -0.220921,-1.548716 -0.364491,-2.518234 -0.436521,-2.947822 -0.656362,-5.775587 -0.67031,-8.622097 -0.01281,-2.610556 0.09913,-6.817987 0.21609,-8.124148 0.03103,-0.34626 0.114355,-1.677776 0.185205,-2.958925 0.07086,-1.281153 0.238239,-3.575892 0.371968,-5.099422 0.133724,-1.523532 0.305043,-3.563301 0.380709,-4.53282 0.07567,-0.969518 0.223872,-2.527676 0.329352,-3.462568 0.105482,-0.934894 0.214372,-2.068098 0.241983,-2.518233 0.0276,-0.450134 0.08097,-1.016737 0.118586,-1.259116 0.03759,-0.24238 0.215606,-2.253819 0.395538,-4.469864 0.179932,-2.216044 0.341149,-4.170822 0.358257,-4.34395 0.115244,-1.166328 0.209742,-3.198073 0.145912,-3.137178 -0.04241,0.04046 -0.102416,0.323764 -0.133349,0.629557 -0.03093,0.305795 -0.118938,1.179252 -0.195574,1.941018 -0.07664,0.761765 -0.164705,1.611669 -0.195714,1.888675 -0.03103,0.277006 -0.111932,1.070248 -0.179833,1.762762 -0.0679,0.692514 -0.151712,1.372437 -0.186247,1.51094 -0.05779,0.231766 -0.472722,4.336389 -1.069183,10.576577 -0.132393,1.385029 -0.303526,3.368134 -0.380306,4.406909 -0.07677,1.03877 -0.191087,2.341957 -0.254027,2.895965 -0.06294,0.554013 -0.176516,2.168828 -0.252392,3.588483 -0.07587,1.419651 -0.166261,2.751167 -0.200848,2.958924 -0.123016,0.738905 -0.163105,7.202357 -0.05402,8.71056 0.06101,0.843476 0.147772,2.061669 0.19282,2.707099 0.183883,2.634656 0.694413,6.437189 0.956989,7.127809 0.06163,0.162091 0.112048,0.528995 0.112048,0.815346 0,0.322893 0.0445,0.475201 0.117149,0.401015 0.06956,-0.07102 0.07512,-0.426509 0.01371,-0.875084 z M 45.886925,87.742547 c 0.227417,-0.09882 0.520749,-0.213473 0.65185,-0.254784 0.131102,-0.04131 0.211536,-0.101948 0.178743,-0.134739 -0.0821,-0.0821 -1.218569,0.313972 -1.305775,0.455076 -0.09661,0.156315 -0.0069,0.143942 0.475182,-0.06556 z m 1.864799,-0.766349 c 0.343486,-0.174055 0.66598,-0.311457 0.716656,-0.305333 0.05068,0.0061 0.112447,-0.04978 0.137261,-0.124225 0.06812,-0.20437 -0.02893,-0.173056 -0.946449,0.305338 -0.46486,0.242379 -0.774728,0.44069 -0.688593,0.44069 0.08613,0 0.43764,-0.142414 0.781125,-0.31647 z m 1.525563,-0.763064 c 0.210752,-0.108982 0.354855,-0.226484 0.320229,-0.26111 -0.06757,-0.06756 -0.841828,0.299909 -0.841828,0.399541 0,0.100555 0.122117,0.06816 0.521599,-0.138431 z m 43.001298,-0.336975 c -0.03493,-0.08657 -0.06351,-0.01575 -0.06351,0.157389 0,0.173133 0.02859,0.243955 0.06351,0.15739 0.03493,-0.08657 0.03493,-0.228211 0,-0.314779 z m -42.137873,-0.09443 c 0.103879,-0.06714 0.132211,-0.122055 0.06296,-0.122055 -0.06926,0 -0.210903,0.05492 -0.31478,0.122055 -0.103879,0.06713 -0.132206,0.122056 -0.06296,0.122056 0.06926,0 0.210898,-0.05493 0.314775,-0.122056 z M 35.660877,83.023457 c 0,-0.06276 -0.113312,-0.08448 -0.25182,-0.04827 -0.138507,0.03621 -0.251824,0.08758 -0.251824,0.114121 0,0.02656 0.113313,0.04827 0.251824,0.04827 0.138503,0 0.25182,-0.05136 0.25182,-0.114132 z m -2.30051,-0.08785 c -0.04183,-0.04183 -0.150438,-0.0463 -0.241327,-0.0099 -0.100449,0.04022 -0.07061,0.07003 0.07607,0.07607 0.132729,0.0055 0.207096,-0.02432 0.165257,-0.06613 z m 4.44101,0.02741 c 0,-0.105202 -0.759048,-0.152698 -0.909933,-0.05693 -0.09617,0.06103 0.05383,0.102521 0.374808,0.103668 0.294317,9.52e-4 0.535125,-0.01999 0.535125,-0.04674 z m 47.981667,-4.271466 c -0.07754,-2.03948 -0.112962,-4.012371 -0.07873,-4.384214 0.117178,-1.272292 0.20547,-7.664167 0.105869,-7.664167 -0.0547,0 -0.104078,0.127486 -0.109743,0.283301 -0.285775,7.864605 -0.302836,8.916113 -0.184397,11.363527 0.139435,2.881278 0.254776,4.262881 0.348088,4.169569 0.03292,-0.03294 -0.0033,-1.728543 -0.0811,-3.768016 z M 41.856238,81.90515 c 0.325758,-0.123722 0.637393,-0.273084 0.692515,-0.331917 0.05512,-0.05883 0.01523,-0.07427 -0.08865,-0.03426 -0.103878,0.03997 -0.486332,0.16507 -0.849904,0.277999 -0.363568,0.112927 -0.661035,0.229624 -0.661035,0.259333 0,0.110083 0.331112,0.04762 0.907072,-0.171128 z m 1.233426,-0.530318 c 0.103879,-0.06713 0.132206,-0.122056 0.06296,-0.122056 -0.06926,0 -0.210904,0.05493 -0.31478,0.122056 -0.103879,0.06713 -0.132206,0.122055 -0.06296,0.122055 0.06926,0 0.210903,-0.05493 0.31478,-0.122055 z M 91.909468,78.82132 c -0.02642,-0.292228 -0.0477,-0.02137 -0.0473,0.601882 3.86e-4,0.623264 0.02198,0.862359 0.04801,0.531323 0.02603,-0.331032 0.0257,-0.840973 -4.75e-4,-1.133205 z m -0.0266,-1.59391 c -0.04593,-0.144727 -0.136252,-0.230548 -0.200706,-0.190717 -0.07049,0.04354 -0.06281,0.174032 0.01928,0.327391 0.168868,0.315536 0.294844,0.220635 0.181441,-0.136674 z M 37.183291,76.830513 c 1.66513,-0.216095 3.774983,-0.88088 5.465698,-1.722156 1.31258,-0.653122 3.609784,-2.328875 4.786571,-3.491684 1.013428,-1.001389 2.488,-3.467233 3.200036,-5.351244 0.754699,-1.996882 1.424686,-5.917848 1.011202,-5.917848 -0.07194,0 -0.426057,0.284951 -0.78695,0.633223 -0.895557,0.864239 -2.226121,1.673598 -3.42969,2.086211 -0.874204,0.299704 -1.198924,0.344257 -2.51476,0.345027 -3.040606,0.0019 -4.947021,-0.816131 -7.411731,-3.179879 -0.960239,-0.920906 -1.864547,-2.159772 -1.915528,-2.624204 -0.01827,-0.166626 -0.177064,-0.510774 -0.352828,-0.764773 -0.497068,-0.718318 -0.739884,-1.983472 -0.75318,-3.924388 -0.01018,-1.484092 0.0317,-1.856135 0.32986,-2.93163 0.187828,-0.677502 0.560866,-1.690603 0.828966,-2.251334 l 0.487455,-1.019512 -0.872375,0.08108 c -1.142661,0.106197 -2.854839,0.491992 -4.016064,0.904909 -3.475399,1.235816 -6.935412,4.43811 -8.570434,7.932076 -0.409035,0.87408 -1.006144,3.208055 -1.243259,4.85962 -0.370801,2.582736 0.303482,6.284552 1.586953,8.712358 0.17782,0.336366 0.302602,0.632278 0.277294,0.657586 -0.07265,0.07265 -1.059837,-1.486309 -1.162467,-1.835756 -0.05085,-0.173129 -0.192072,-0.39977 -0.313842,-0.503651 -0.22617,-0.192934 -0.296068,-0.397398 -0.774776,-2.266409 -0.367189,-1.433604 -0.40085,-1.514709 -0.457299,-1.101967 -0.07607,0.55612 0.336623,2.337725 0.805177,3.476046 0.968523,2.352944 1.812846,3.677436 3.021569,4.739929 3.507602,3.083264 4.775202,3.79549 7.843957,4.407271 1.03482,0.206301 3.53488,0.232208 4.930445,0.0511 z m 54.80064,-2.821517 c 0.04045,-1.385029 0.131026,-3.226486 0.201243,-4.092128 0.07022,-0.865642 0.189455,-2.650441 0.264974,-3.966219 0.07552,-1.315774 0.187703,-2.873931 0.249302,-3.462569 0.0616,-0.588639 0.173846,-1.806832 0.24944,-2.7071 0.135043,-1.608253 0.589315,-6.631173 0.954429,-10.553235 0.101959,-1.095184 0.161468,-2.030078 0.132253,-2.077543 -0.02921,-0.04746 0.02332,-0.567909 0.116743,-1.156546 0.176467,-1.111817 0.189711,-2.266402 0.02598,-2.266406 -0.05193,-2e-6 -0.0949,0.04249 -0.09546,0.09443 -4.75e-4,0.05193 -0.05945,0.604376 -0.13085,1.227639 -0.123488,1.077909 -0.250268,2.439952 -0.679765,7.302874 -0.203265,2.301453 -0.379144,4.113676 -0.574324,5.917848 -0.225741,2.086671 -0.530323,5.404675 -0.583688,6.358537 -0.02908,0.519383 -0.108187,1.879228 -0.175841,3.02188 -0.177268,2.993907 -0.274524,9.292616 -0.139986,9.065638 0.06158,-0.103879 0.145064,-1.322075 0.185533,-2.707101 z m -5.958389,-8.199119 c 0,-0.177792 -0.05479,-0.280916 -0.125911,-0.236963 -0.06924,0.04278 -0.125909,0.219469 -0.125909,0.392597 0,0.177791 0.05479,0.280916 0.125909,0.236962 0.06926,-0.04278 0.125911,-0.219469 0.125911,-0.392596 z M 74.74154,65.692286 c 0.04301,-0.112049 0.02189,-0.162592 -0.04949,-0.118477 -0.06846,0.0423 -0.124468,0.13024 -0.124468,0.195403 0,0.181118 0.09024,0.141205 0.173955,-0.07692 z M 85.985643,64.73088 c -0.04022,-0.100449 -0.07003,-0.0706 -0.07607,0.07607 -0.0055,0.132734 0.02428,0.207101 0.06613,0.165261 0.04183,-0.04183 0.0463,-0.150437 0.0099,-0.241332 z m -100.16971,-2.33724 c 0.156619,-0.199701 0.152164,-0.204155 -0.04754,-0.04754 -0.121188,0.09504 -0.220345,0.194199 -0.220345,0.220345 0,0.103633 0.103399,0.03693 0.267882,-0.172809 z m 34.811648,-3.242223 c 0.413497,-2.131796 1.341757,-4.546497 2.371743,-6.169669 0.571801,-0.901109 0.595828,-0.944338 0.524873,-0.944338 -0.03522,0 -0.323627,0.363801 -0.640919,0.808448 -1.370415,1.920459 -2.622134,5.554624 -2.564752,7.446343 0.01171,0.386492 0.03683,0.478967 0.06627,0.244245 0.02608,-0.207753 0.135328,-0.831017 0.242787,-1.385029 z m 1.092726,-2.014586 c 0.313842,-0.969518 0.808845,-2.196178 1.100007,-2.725901 1.338997,-2.436123 3.856383,-5.162777 5.960745,-6.45626 0.667587,-0.410346 1.213796,-0.763758 1.213796,-0.78536 0,-0.160549 -1.602819,0.726578 -2.372128,1.312922 -2.398126,1.82778 -4.13699,3.892802 -5.220175,6.19932 -0.558847,1.190007 -1.353916,3.555448 -1.417757,4.218043 -0.06255,0.649158 0.01461,0.464261 0.735512,-1.762764 z m 64.997736,0.188865 c 0.04278,-0.06925 0.0178,-0.125909 -0.05553,-0.125909 -0.07333,0 -0.133339,0.05666 -0.133339,0.125909 0,0.06926 0.02499,0.125916 0.05553,0.125916 0.03055,0 0.09055,-0.05666 0.133344,-0.125916 z m 0.188868,-1.510938 c 0,-0.06926 -0.05666,-0.125911 -0.125914,-0.125911 -0.06926,0 -0.12591,0.05666 -0.12591,0.125911 0,0.06926 0.05666,0.125914 0.12591,0.125914 0.06924,0 0.125914,-0.05666 0.125914,-0.125914 z m -51.86103,-0.76783 c -0.07726,-0.221624 -0.140473,-0.649466 -0.140473,-0.950764 0,-0.301298 -0.0425,-0.547683 -0.09443,-0.547526 -0.145992,4.42e-4 -0.153896,0.767952 -0.01295,1.258829 0.211784,0.737643 0.236539,0.794207 0.31379,0.716961 0.04102,-0.04102 0.01135,-0.255879 -0.06592,-0.4775 z m 45.175136,-1.90779 c 0.578006,-1.264577 0.670418,-1.511805 0.533459,-1.427159 -0.05818,0.03596 -0.207154,0.336371 -0.331032,0.667576 -0.123883,0.331204 -0.272725,0.663196 -0.330765,0.737763 -0.164961,0.211927 -0.500432,1.060589 -0.419242,1.060589 0.04002,0 0.286442,-0.467444 0.54758,-1.038769 z M 39.8503,50.904205 c 0.06324,-0.974799 0.05408,-1.036561 -0.102685,-0.692514 -0.181013,0.397252 -0.238111,1.285017 -0.104968,1.631983 0.116017,0.302332 0.131701,0.231369 0.207653,-0.939469 z m 19.859699,-5.08595 c 0,-0.02721 -0.08794,-0.08323 -0.195408,-0.124469 -0.112049,-0.043 -0.162592,-0.02189 -0.118481,0.04949 0.07394,0.119641 0.313889,0.176963 0.313889,0.07498 z m 34.65088,-3.2494 c -0.117521,-0.117517 -0.151094,-0.08394 -0.151094,0.151094 0,0.235035 0.03355,0.268612 0.151094,0.151094 0.117515,-0.117517 0.117515,-0.18467 0,-0.302188 z m 0.138563,-0.52136 c 0.03564,-0.09284 0.01423,-0.24866 -0.04754,-0.346257 -0.08176,-0.129144 -0.112856,-0.08318 -0.114261,0.168808 -0.0019,0.376001 0.05965,0.443705 0.161821,0.177449 z m 0.08615,-0.995875 c -0.0014,-0.221189 -0.02732,-0.243212 -0.117605,-0.10045 -0.06363,0.100567 -0.08774,0.228056 -0.0536,0.283301 0.109216,0.176709 0.17318,0.108385 0.171199,-0.182856 z m 0.127838,-1.172114 c 0,-0.182743 -0.0545,-0.288527 -0.125911,-0.244392 -0.06926,0.0428 -0.12591,0.187795 -0.12591,0.322211 0,0.134415 0.05666,0.244392 0.12591,0.244392 0.06925,0 0.125911,-0.144995 0.125911,-0.322211 z m 1.169276,-2.605235 c 0.03345,-0.467446 0.01861,-0.849903 -0.03303,-0.849903 -0.114038,0 -0.256512,1.110085 -0.242411,1.888674 0.0095,0.523465 0.01804,0.537845 0.112435,0.188868 0.05619,-0.207755 0.12955,-0.760191 0.163009,-1.227639 z M 56.05856,38.576267 c -0.103878,-0.05877 -0.330517,-0.141474 -0.503645,-0.18379 -0.26238,-0.06413 -0.251901,-0.04666 0.06296,0.105002 0.403514,0.194356 0.756517,0.257467 0.44069,0.07879 z M 55.051262,38.18713 C 54.947383,38.12 54.805738,38.065075 54.736488,38.065075 c -0.06926,0 -0.04093,0.05493 0.06296,0.122055 0.103879,0.06713 0.245524,0.122057 0.314779,0.122057 0.06926,0 0.04093,-0.05493 -0.06296,-0.122057 z m -2.792364,-1.012248 c -0.464374,-0.270933 -4.499097,-1.29896 -5.643714,-1.437991 -0.550053,-0.06681 0.264845,0.155128 3.525525,0.960181 0.865642,0.213724 1.658888,0.436386 1.762764,0.494805 0.103879,0.05842 0.273859,0.10622 0.377735,0.10622 0.152683,0 0.148405,-0.02361 -0.02232,-0.123211 z m 43.839558,-2.072586 c 0,-0.103879 -0.02227,-0.188868 -0.04949,-0.188868 -0.02723,0 -0.0821,0.08499 -0.121956,0.188868 -0.03988,0.103879 -0.0176,0.188868 0.04949,0.188868 0.06708,0 0.12196,-0.08499 0.12196,-0.188868 z m 0.156,-1.50713 c 0.03269,-0.171032 0.011,-0.281009 -0.04828,-0.244392 -0.104323,0.06448 -0.156872,0.555362 -0.05945,0.555362 0.02656,0 0.07503,-0.139937 0.107718,-0.31097 z m 0.05671,-1.168493 c -0.03165,-0.121189 -0.05759,-0.02203 -0.05759,0.220346 0,0.24238 0.02594,0.341535 0.05759,0.220345 0.0317,-0.12119 0.0317,-0.319501 0,-0.440691 z m 0.122503,-0.818425 c -0.03493,-0.08657 -0.06351,-0.01574 -0.06351,0.15739 0,0.173128 0.02859,0.243953 0.06351,0.157389 0.03493,-0.08657 0.03493,-0.228215 0,-0.314779 z M 84.096953,25.824182 c -0.04021,-0.100449 -0.07003,-0.0706 -0.07607,0.07607 -0.0055,0.132731 0.02428,0.207098 0.06613,0.165259 0.04183,-0.04184 0.0463,-0.150439 0.0099,-0.241331 z m 0.480641,-1.288399 c 0.255718,-0.842813 0.143284,-0.885316 -0.131473,-0.0497 -0.357134,1.086153 -0.355068,1.077039 -0.194757,0.858061 0.07605,-0.103879 0.222849,-0.46764 0.32623,-0.808362 z M 85.133539,22.7 c 4.14e-4,-0.103879 -0.08203,0.0018 -0.183187,0.234802 -0.101164,0.233017 -0.179339,0.487988 -0.173714,0.566601 0.01423,0.19868 0.355977,-0.568729 0.356901,-0.801403 z m 0.313747,-0.9968 c -0.08154,-0.08336 -0.136342,0.02513 -0.217299,0.430198 l -0.07549,0.377735 0.172056,-0.377735 c 0.09463,-0.207755 0.148961,-0.401343 0.120738,-0.430198 z m 0.160607,-0.537748 c -0.04022,-0.100449 -0.07003,-0.0706 -0.07607,0.07607 -0.0055,0.132732 0.02428,0.207099 0.06613,0.165259 0.04183,-0.04184 0.0463,-0.150438 0.0099,-0.24133 z m 1.742082,-7.255861 c 0.03636,-0.186001 -0.189964,0.359537 -0.502903,1.212307 -0.312938,0.85277 -0.598712,1.702674 -0.635051,1.888675 -0.03635,0.186 0.189959,-0.359538 0.502898,-1.212308 0.312938,-0.852771 0.598713,-1.702673 0.635056,-1.888674 z m 6.768191,65.828379 c 0,-0.311634 0.02456,-0.439119 0.05457,-0.283304 0.03003,0.155819 0.03003,0.410789 0,0.566604 -0.03004,0.155815 -0.05457,0.02831 -0.05457,-0.2833 z m 0.0089,-2.203454 c 4.56e-4,-0.554013 0.0226,-0.764988 0.0492,-0.468839 0.0266,0.296149 0.02622,0.749431 -9.52e-4,1.007291 -0.02703,0.257863 -0.04882,0.01555 -0.04836,-0.538452 z M -15.349351,73.473867 c -0.156619,-0.199706 -0.152165,-0.20416 0.04755,-0.04754 0.121188,0.09504 0.220345,0.194199 0.220345,0.220345 0,0.103633 -0.103399,0.03693 -0.267882,-0.172805 z"
       id="path1" /></g></svg>
